<svg xmlns="http://www.w3.org/2000/svg" viewBox="0 0 982.15 982.08"><defs><style>.cls-1,.cls-3{fill:#ffffff;}.cls-2,.cls-5,.cls-8{fill:none;}.cls-2,.cls-3{stroke:#ffffff;}.cls-2,.cls-3,.cls-5,.cls-6,.cls-8,.cls-9{stroke-miterlimit:10;}.cls-4,.cls-6{fill:#ffffff;}.cls-5,.cls-6{stroke:#ffffff;}.cls-5,.cls-6,.cls-8,.cls-9{stroke-width:0.5px;}.cls-7,.cls-9{fill:#ffffff;}.cls-8,.cls-9{stroke:#ffffff;}</style></defs><title>SquareLogoBareSVG</title><g id="DECALOGO"><path class="cls-1" d="M363.68,57.34,531.31,206.15C495,240.28,133,577.64,53.51,698.49l-2.91-1.61C87.21,507,303.63,138.61,363.68,57.34Z" transform="translate(-48.3 -48.69)"/><path class="cls-2" d="M51.68,701.32c.61-.92,1.22-1.87,1.83-2.83C133,577.64,495,240.28,531.31,206.15L363.68,57.34C303.63,138.61,87.21,507,50.6,696.88" transform="translate(-48.3 -48.69)"/><path class="cls-3" d="M705.73,1030C549.21,1008,143.38,810.6,58.42,721.3L204.87,552.62C263,655.15,581.49,939.47,705.73,1030Z" transform="translate(-48.3 -48.69)"/><path class="cls-2" d="M54.32,685.29c-.81,3.1-4.1,9.69-5.36,18.86,2.61-2.13,9.19-19.35,10.95-22.21" transform="translate(-48.3 -48.69)"/><path class="cls-3" d="M1029.94,387.16c0,86.29-182.48,510-302.65,636.13l-166.9-140.5C666.09,821.94,982.1,469,1029.94,387.16Z" transform="translate(-48.3 -48.69)"/><path class="cls-3" d="M872.46,544.8C845.86,489.39,502.34,138.86,386,49.53c142.94,24.88,534.12,208.06,629.42,323.39L875.78,544.8" transform="translate(-48.3 -48.69)"/></g><g id="REEDYLOGO"><path class="cls-4" d="M668.79,487.94l-.35.57c-10.86,1.36-26.4,2.41-36.34-2.19s-16.51-7.23-22.9-16.07c-3.16-4.38-9.24-11.12-13.89-13.93v0c-7.66-3.85-15.28-7.71-23.2-10.95-9.68-3.94-19.71-7-29.73-9.94-13.93-4.2-28.16-8.4-42.74-8-10.9.31-21.59,3.29-32.49,4.56-11.21,1.31-22.77.83-33.54-2.67A48,48,0,0,1,408,410.26c-5.38-7.75-9.59-18.08-7.09-27.19,2.32-8.67,10-16.9,18.91-17.39l.09,1.71c-3.24.92-4.64,5.52-5.17,8.8a26.83,26.83,0,0,0,3.55,18c3.2,5.21,6.74,10,12,13,10.73,6.18,24.74,7.93,37,6.48,4.56-.52,9-1.62,13.53-2.36,27.11-4.47,54.78,2.84,80.35,12.78,13,5,23,9.94,35.34,16.29l1.14-.22a16.72,16.72,0,0,0-4.51-9.23c-3.94-4-9.63-5.83-15-7.45-6.44-1.93-12.83-3.85-19.22-5.73-6.18-1.89-12.44-3.77-18-7s-10.46-8.15-12.48-14.28c-1.27-3.9.35-8.93.48-13.05a10.27,10.27,0,0,1,1.27-5.6,8.56,8.56,0,0,1,5-3.11c5.74-1.62,10.51.22,15.51,3.46l-.18,1.36c-3.5-.71-7.49,2.05-8.41,5.69-1.05,4.11,1.1,8.58,4.34,11.34s7.44,4.16,11.56,5.25a113.53,113.53,0,0,0,35.64,3.59c5-.3,10.16-.87,14.84,1,3.73,1.44,6.7,4.33,9.59,7.13,1.41,1.41,2.85,2.81,4.3,4.21-.22.13,0,.26.17.39s0,.13,0,.18.08-.13,0-.18a18.29,18.29,0,0,1,11-12.3c2.5-1,5.52-1.32,7.75.22-3.9,4.24-7.27,8-8.71,13.53-2.45,9.5,3.11,19.31,10.11,26.18s15.59,12.09,21.81,19.66l.74,2.76a60.68,60.68,0,0,1,18.53,13.09c5.51,5.74,9.8,12.53,14.09,19.23l14.85,23.38.31.7a103,103,0,0,1,32.27,24.7c2.45,2.75,4.77,5.73,5.86,9.23,2.19,6.84-.52,14.19-3.89,20.5-1.36,2.62-2.89,5.21-3.59,8.1-.57,2.23-.62,4.55-1,6.83a22.88,22.88,0,0,1-2.59,7.31l0,0a1,1,0,0,1,.31.91c-1.23,4.08-4.08,7.45-6,11.21-3.24,6.18-4,13.27-5.48,20.1s-3.94,13.84-9.41,18.17c-6,4.65-14.23,5.08-21.68,3.64-11.38-2.15-21.36-9.15-28.15-18.52a21.16,21.16,0,0,0,2.58,1.35A96.81,96.81,0,0,0,688.23,644c5.26,1.4,10.69,2.36,16.07,1.75s10.73-3,14.1-7.23,7.84-6.52,4.12-14c.3-.22-.7-.92-.4-1.14-4.94-2.37-12.74-2.63-18.21-2-3.55.44-7.1,1-10.64,1.53-3.81.57-8.67,1.58-11.52,4.16,1.75-6.52,7.66-11,13.75-13.88,3.28-1.53,6.92-2.72,10.42-1.88,2.59.61,4.77,2.23,7.31,2.93,3.81,1.09,8.06-.18,11.21-2.58a22.62,22.62,0,0,0,6.7-9.72,35.93,35.93,0,0,0,.35-25.23l.57-.3c-1.18-2.24-2.41-4.47-3.59-6.7-.65-1.18-1.31-2.59-.83-3.86.74-1.83,3.5-2,5.17-.87s2.67,3,4.07,4.42,3.59,2.5,5.34,1.49a4,4,0,0,0,1.71-3.24c.22-2.76-1.31-5.3-2.89-7.53a78.74,78.74,0,0,0-36.52-28.07l-.39-1h0c-.39,0-.57-.48-.65-.88-1-3.85-3.46-7.14-5.78-10.24L689,508.43C683.15,500.64,677,492.58,668.79,487.94Zm-9.37-8.71c.22-.35-.53-.79-.57-.35-2.63-3.95-5.17-7.84-8.76-10.86-10.29-8.63-20.45-17-33.19-21.15a33.67,33.67,0,0,0,13.79,23.51c8,5.65,18,7.49,27.59,9.11C658.72,479.53,659.2,479.58,659.42,479.23Z" transform="translate(-48.3 -48.69)"/><path class="cls-5" d="M421.13,365.64c-.44,0-.88,0-1.32,0-8.88.49-16.59,8.72-18.91,17.39-2.5,9.11,1.71,19.44,7.09,27.19a48,48,0,0,0,25.62,19.05c10.77,3.5,22.33,4,33.54,2.67,10.9-1.27,21.59-4.25,32.49-4.56,14.58-.43,28.81,3.77,42.74,8,10,3,20,6,29.73,9.94,7.92,3.24,15.54,7.1,23.2,10.95.62.31,1.27.66,1.89,1" transform="translate(-48.3 -48.69)"/><path class="cls-5" d="M419.9,367.39c-3.24.92-4.64,5.52-5.17,8.8a26.83,26.83,0,0,0,3.55,18c3.2,5.21,6.74,10,12,13,10.73,6.18,24.74,7.93,37,6.48,4.56-.52,9-1.62,13.53-2.36,27.11-4.47,54.78,2.84,80.35,12.78,13,5,23,9.94,35.34,16.29" transform="translate(-48.3 -48.69)"/><path class="cls-5" d="M597.85,442.27a15.29,15.29,0,0,0-.17-2,16.72,16.72,0,0,0-4.51-9.23c-3.94-4-9.63-5.83-15-7.45-6.44-1.93-12.83-3.85-19.22-5.73-6.18-1.89-12.44-3.77-18-7s-10.46-8.15-12.48-14.28c-1.27-3.9.35-8.93.48-13.05a10.27,10.27,0,0,1,1.27-5.6,8.56,8.56,0,0,1,5-3.11c5.74-1.62,10.51.22,15.51,3.46" transform="translate(-48.3 -48.69)"/><path class="cls-5" d="M622.55,418.14a18.29,18.29,0,0,1,11-12.3c2.5-1,5.52-1.32,7.75.22-3.9,4.24-7.27,8-8.71,13.53-2.45,9.5,3.11,19.31,10.11,26.18s15.59,12.09,21.81,19.66c.09-.65.13-1.27.17-1.88" transform="translate(-48.3 -48.69)"/><path class="cls-5" d="M622.55,418.14c0,.05,0,.09,0,.18S622.55,418.19,622.55,418.14Z" transform="translate(-48.3 -48.69)"/><path class="cls-5" d="M552,380.05a5.53,5.53,0,0,0-1.49-.48c-3.5-.71-7.49,2.05-8.41,5.69-1.05,4.11,1.1,8.58,4.34,11.34s7.44,4.16,11.56,5.25a113.53,113.53,0,0,0,35.64,3.59c5-.3,10.16-.87,14.84,1,3.73,1.44,6.7,4.33,9.59,7.13,1.41,1.41,2.85,2.81,4.3,4.21-.22.13,0,.26.17.39" transform="translate(-48.3 -48.69)"/><path class="cls-5" d="M658.85,478.88c0-.44.79,0,.57.35s-.7.3-1.14.26c-9.63-1.62-19.62-3.46-27.59-9.11a33.67,33.67,0,0,1-13.79-23.51c12.74,4.16,22.9,12.52,33.19,21.15C653.68,471,656.22,474.93,658.85,478.88Z" transform="translate(-48.3 -48.69)"/><path class="cls-5" d="M595.31,456.32c4.65,2.81,10.73,9.55,13.89,13.93,6.39,8.84,13,11.56,22.9,16.07s25.48,3.55,36.34,2.19" transform="translate(-48.3 -48.69)"/><path class="cls-5" d="M665.24,468.19a60.68,60.68,0,0,1,18.53,13.09c5.51,5.74,9.8,12.53,14.09,19.23l14.85,23.38" transform="translate(-48.3 -48.69)"/><path class="cls-5" d="M667.87,487.41l.92.53c8.23,4.64,14.36,12.7,20.19,20.49L697.65,520c2.32,3.1,4.73,6.39,5.78,10.24.08.4.26.88.65.88h0c.35,0,.22-.83,0-.57" transform="translate(-48.3 -48.69)"/><path class="cls-5" d="M713,524.59a103,103,0,0,1,32.27,24.7c2.45,2.75,4.77,5.73,5.86,9.23,2.19,6.84-.52,14.19-3.89,20.5-1.36,2.62-2.89,5.21-3.59,8.1-.57,2.23-.62,4.55-1,6.83a22.88,22.88,0,0,1-2.59,7.31" transform="translate(-48.3 -48.69)"/><path class="cls-5" d="M704.52,532.12A78.74,78.74,0,0,1,741,560.19c1.58,2.23,3.11,4.77,2.89,7.53a4,4,0,0,1-1.71,3.24c-1.75,1-4,0-5.34-1.49s-2.41-3.33-4.07-4.42-4.43-1-5.17.87c-.48,1.27.18,2.68.83,3.86,1.18,2.23,2.41,4.46,3.59,6.7" transform="translate(-48.3 -48.69)"/><path class="cls-5" d="M731.49,576.78a35.93,35.93,0,0,1-.35,25.23,22.62,22.62,0,0,1-6.7,9.72c-3.15,2.4-7.4,3.67-11.21,2.58-2.54-.7-4.72-2.32-7.31-2.93-3.5-.84-7.14.35-10.42,1.88-6.09,2.85-12,7.36-13.75,13.88,2.85-2.58,7.71-3.59,11.52-4.16,3.54-.57,7.09-1.09,10.64-1.53,5.47-.66,13.27-.4,18.21,2-.3.22.7.92.4,1.14,3.72,7.44-.79,9.76-4.12,14s-8.71,6.62-14.1,7.23-10.81-.35-16.07-1.75a96.81,96.81,0,0,1-16.07-5.83,21.16,21.16,0,0,1-2.58-1.35c6.79,9.37,16.77,16.37,28.15,18.52,7.45,1.44,15.72,1,21.68-3.64,5.47-4.33,7.92-11.38,9.41-18.17s2.24-13.92,5.48-20.1c1.92-3.76,4.77-7.13,6-11.21a1,1,0,0,0-.31-.91c-.18-.18-.4-.22-.4.08" transform="translate(-48.3 -48.69)"/><path class="cls-4" d="M592.86,488.6c-2.71,2.1-.74,2.1-3.06,4.64-3.94,4.29-10.34,5.38-16.16,5.16s-11.65-1.62-17.47-1.18c-7.84.57-15.06,4.29-22.77,5.69s-17.73-.13-21.06-7.26c-.66-1.41-.79-3.59.74-4.16a3.73,3.73,0,0,1,1.84.08,83.35,83.35,0,0,0,19.27,1.54c3.19-.09,6.65-.4,9.15-2.37-10.69-7.92-24.92-9-38.18-8-7.67.52-15.55,1.62-23-.31s-14.32-9.28-14.76-17c9.9,6.66,22.77,6.4,34.55,4.82s23.82-4.2,35.42-1.49c9.72,2.32,18.18,8.19,26.93,13S583.05,490.57,592.86,488.6Z" transform="translate(-48.3 -48.69)"/><path class="cls-5" d="M592.86,488.6c-9.81,2-19.79-2-28.55-6.83s-17.21-10.69-26.93-13c-11.6-2.71-23.64-.09-35.42,1.49s-24.65,1.84-34.55-4.82c.44,7.71,7.31,15.07,14.76,17s15.32.83,23,.31c13.26-1,27.49.09,38.18,8-2.5,2-6,2.28-9.15,2.37a83.35,83.35,0,0,1-19.27-1.54,3.73,3.73,0,0,0-1.84-.08c-1.53.57-1.4,2.75-.74,4.16,3.33,7.13,13.31,8.67,21.06,7.26s14.93-5.12,22.77-5.69c5.82-.44,11.65.92,17.47,1.18s12.22-.87,16.16-5.16C592.12,490.7,590.15,490.7,592.86,488.6Z" transform="translate(-48.3 -48.69)"/><path class="cls-6" d="M430.79,492.65c1.57,2,.8,5.17-1.12,6.84s-4.64,2.12-7.19,2.06c-7.26-.19-13.89-3.93-20.17-7.57l-12.05-7c-5-2.92-10.19-5.88-15.9-7.05-10.34-2.1-21.94,2.05-27.87,10.79-.05-4.16.08-8.8,3-11.76a13.18,13.18,0,0,1,3.76-2.47,40.11,40.11,0,0,1,17.43-3.94c1.67,0,7,1.45,8.3.23,2-1.82-.59-4.13-2.49-5.07-2.07-1-4.42-1.3-6.62-2a18.09,18.09,0,0,1-7.48-4.62c-.63-.66.55-2.24.49-3.15a4.41,4.41,0,0,1,.66-2.2c.66-1.31-.46-1.81.2-3.12,2.34,3.18,6.13,6.71,9.84,8.1,2.56.95,5.29,1.39,7.83,2.41,3.75,1.49,6.89,4.16,9.95,6.78l23.83,20.41c2.27,1.94,4.62,3.93,7.48,4.78S429.09,495.1,430.79,492.65Z" transform="translate(-48.3 -48.69)"/><path class="cls-6" d="M654.54,542A18.72,18.72,0,0,1,670,531.79c1.17-.06,2.55-.12,3.17-1.11s-.2-2.65-1.42-3.13a7,7,0,0,0-3.86.07,17.32,17.32,0,0,1-6.82.46c-2.25-.45-4.43-2-5-4.22a5.81,5.81,0,0,1,2.18-5.6,11.29,11.29,0,0,1,5.85-2.2,21.62,21.62,0,0,1,24.23,22.39c-2.14-1-4.33,1.15-5.85,3s-3.25,3.57-5.5,4.26-5.1,0-6.1-2.17a12.46,12.46,0,0,0-.72-1.72c-1.14-1.76-4-1.33-5.49.14s-2.19,3.55-3.37,5.28c-2.74,4-13.28,7.72-16.09,1.54-1-2.1,0-4,1.94-4.43,1.21-.29,2.7,2,4.57,1.38C653.19,545.2,653.92,543.22,654.54,542Z" transform="translate(-48.3 -48.69)"/><path class="cls-7" d="M425,561.65l-.09-.08C423,554.7,421,547.87,419.09,541c-1.36-4.86-2.17-11.34,2.25-13.84,3.24-1.76,7.27-.11,10.21,2s5.74,5,9.34,5.68c-.71-4.07-1.42-8.15-2.17-12.22-.14-.74-.23-1.57.3-2a2.17,2.17,0,0,1,1.57-.45c14.76-.24,28.83,6.6,43.54,7.1,7,.2,13.88-1,20.8-1.75A148.31,148.31,0,0,1,564,531.37a47.41,47.41,0,0,1,12.36,5.45c5.35,3.58,9.3,8.87,14.34,12.8,10.88,8.56,25.86,10.41,36.82,18.8,4.21,3.19,7.9,7.78,7.78,13.08a15.94,15.94,0,0,1-2.83,8.15,29.93,29.93,0,0,1-14.42,11.72c.22,3.32-1.08,8.45-2.3,11.56-1.35,3.51-4.37,6.1-7.56,8.12a41.41,41.41,0,0,1-18.6,6.21c2.8-1.58,3.81-1.72,6.65-3.34a7.78,7.78,0,0,0,4.81-5.84l1.56-5.38a7,7,0,0,0,.13-4.43l-.18.13a41.7,41.7,0,0,0-29.23,8.52,22.44,22.44,0,0,0-6,6.53c-1.92,3.47-2.43,7.49-2.91,11.44-.52,4.16-.9,8.89,1.78,12.12,1.58,1.93,4,2.93,6.4,3.62a30.25,30.25,0,0,0,29.41-8,54.92,54.92,0,0,1-7.75,21.52,15,15,0,0,1,3.28,1.26c2.72,1.4,3.39,5,3.09,8-.95,9-7.68,16.66-15.68,20.92a28,28,0,0,1-11.42,3.44,72.88,72.88,0,0,1-9.24-.55,24.09,24.09,0,0,1-7.1-1.08c-5.83-2.4-7.73-9.88-6.91-16.1.48-3.59,1.56-7.53-.37-10.64-2.28-3.76-7.49-4-11.79-5-3.72-.82-7.45-2.65-9.64-5.76-2-2.79-.68-9,1.42-12.3l1,.61c-1.66,4,2.12,8.88,6.37,10.58,4.47,1.79,9.55,1.69,13.93,3.78,7.58,3.58,11,14.08,6.83,21.44-.7,1.19-1.57,2.55-1,3.86a3.31,3.31,0,0,0,2,1.7c4.38,2,9.55,1.12,14.14-.38A56.63,56.63,0,0,0,589,680c2.18-1.54,4.5-4.22,3.18-6.54-.7-1.22-2.24-1.74-3.59-2.18-10.65-3.35-22.09-7.57-28-17.06-3.73-6-4.71-13.3-4.77-20.35-.1-6,.54-12.26,3.91-17.18,4.36-6.44,12.41-9.13,19.85-11.42q20.69-6.42,41.31-12.78a111.47,111.47,0,0,0-20.48-15.68,71.16,71.16,0,0,1,21.58-1.62,71.7,71.7,0,0,0-22.4-12c-6.66-2.18-14.06-3.61-19-8.63a63.05,63.05,0,0,1-4.44-5.73,35.66,35.66,0,0,0-12-9.92c-6.88-3.53-14.68-4.69-22.38-5.29A167,167,0,0,0,469.54,544c4.25,2.18,9.86,1.42,14.45.14,1.32,1.84-1.26,4-3.45,4.65-15.84,4.72-32.66-.89-48.22-6.42-1.23-.44-2.63-1.05-3.07-2.27,7.71,24.72,29.21,44.6,54.49,50.37,3,.65,6.13,1.17,9.15.51a8,8,0,0,1-5.86,4.78,22.67,22.67,0,0,1-7.88,0c-8-1-16-2.16-23.57-5S441,583.3,436.42,576.65l-.62-.57c-6.77,7.81-16.43,12.78-26.46,15.21-10.41,2.51-21.27,2.45-31.91,1.29-9.55-1-19.1-2.9-27.61-7.35s-16.4-11.39-19.35-20.49a59.59,59.59,0,0,0,41.28,16.86,87.84,87.84,0,0,0,14.36-1.39C400.56,577.73,415.52,572.79,425,561.65Z" transform="translate(-48.3 -48.69)"/><path class="cls-8" d="M425.7,560.82c-.22.31-.48.57-.7.83-9.48,11.14-24.44,16.08-38.89,18.56a87.84,87.84,0,0,1-14.36,1.39,59.59,59.59,0,0,1-41.28-16.86c2.95,9.1,10.85,16,19.35,20.49s18.06,6.36,27.61,7.35c10.64,1.16,21.5,1.22,31.91-1.29,10-2.43,19.69-7.4,26.46-15.21a6.06,6.06,0,0,0,.75-.79" transform="translate(-48.3 -48.69)"/><path class="cls-8" d="M424.91,561.57C423,554.7,421,547.87,419.09,541c-1.36-4.86-2.17-11.34,2.25-13.84,3.24-1.76,7.27-.11,10.21,2s5.74,5,9.34,5.68c-.71-4.07-1.42-8.15-2.17-12.22-.14-.74-.23-1.57.3-2a2.17,2.17,0,0,1,1.57-.45c14.76-.24,28.83,6.6,43.54,7.1,7,.2,13.88-1,20.8-1.75A148.31,148.31,0,0,1,564,531.37a47.41,47.41,0,0,1,12.36,5.45c5.35,3.58,9.3,8.87,14.34,12.8,10.88,8.56,25.86,10.41,36.82,18.8,4.21,3.19,7.9,7.78,7.78,13.08a15.94,15.94,0,0,1-2.83,8.15,29.93,29.93,0,0,1-14.42,11.72c.22,3.32-1.08,8.45-2.3,11.56-1.35,3.51-4.37,6.1-7.56,8.12a41.41,41.41,0,0,1-18.6,6.21c2.8-1.58,3.81-1.72,6.65-3.34a7.78,7.78,0,0,0,4.81-5.84l1.56-5.38a7,7,0,0,0,.13-4.43,2.31,2.31,0,0,0-1-1.13" transform="translate(-48.3 -48.69)"/><path class="cls-8" d="M622,575.22h0a71.16,71.16,0,0,0-21.58,1.62,111.47,111.47,0,0,1,20.48,15.68q-20.67,6.4-41.31,12.78c-7.44,2.29-15.49,5-19.85,11.42-3.37,4.92-4,11.22-3.91,17.18.06,7.05,1,14.36,4.77,20.35,5.93,9.49,17.37,13.71,28,17.06,1.35.44,2.89,1,3.59,2.18,1.32,2.32-1,5-3.18,6.54a56.63,56.63,0,0,1-15.84,8c-4.59,1.5-9.76,2.39-14.14.38a3.31,3.31,0,0,1-2-1.7c-.53-1.31.34-2.67,1-3.86,4.14-7.36.75-17.86-6.83-21.44-4.38-2.09-9.46-2-13.93-3.78-4.25-1.7-8-6.55-6.37-10.58a4.14,4.14,0,0,1,.34-.66" transform="translate(-48.3 -48.69)"/><path class="cls-8" d="M436.42,576.65c4.57,6.65,11.63,11.23,19.16,14.06s15.6,4,23.57,5a22.67,22.67,0,0,0,7.88,0,8,8,0,0,0,5.86-4.78c-3,.66-6.17.14-9.15-.51-25.28-5.77-46.78-25.65-54.49-50.37.44,1.22,1.84,1.83,3.07,2.27,15.56,5.53,32.38,11.14,48.22,6.42,2.19-.61,4.77-2.81,3.45-4.65-4.59,1.28-10.2,2-14.45-.14a167,167,0,0,1,72.19-10.35c7.7.6,15.5,1.76,22.38,5.29a35.66,35.66,0,0,1,12,9.92,63.05,63.05,0,0,0,4.44,5.73c4.91,5,12.31,6.45,19,8.63a71.7,71.7,0,0,1,22.4,12" transform="translate(-48.3 -48.69)"/><path class="cls-8" d="M530.66,645.33a6.62,6.62,0,0,0-.74,1.06c-2.1,3.33-3.44,9.51-1.42,12.3,2.19,3.11,5.92,4.94,9.64,5.76,4.3,1,9.51,1.21,11.79,5,1.93,3.11.85,7.05.37,10.64-.82,6.22,1.08,13.7,6.91,16.1a24.09,24.09,0,0,0,7.1,1.08,72.88,72.88,0,0,0,9.24.55A28,28,0,0,0,585,694.35c8-4.26,14.73-11.89,15.68-20.92.3-3-.37-6.65-3.09-8a15,15,0,0,0-3.28-1.26A54.92,54.92,0,0,0,602,642.6a30.25,30.25,0,0,1-29.41,8c-2.41-.69-4.82-1.69-6.4-3.62-2.68-3.23-2.3-8-1.78-12.12.48-3.95,1-8,2.91-11.44a22.44,22.44,0,0,1,6-6.53,41.7,41.7,0,0,1,29.23-8.52" transform="translate(-48.3 -48.69)"/><path class="cls-7" d="M590.89,580.64a2.2,2.2,0,0,1,.31,1.27c-.18.83-1.05,1.27-1.84,1.57a71.69,71.69,0,0,1-18.17,4.34,14.09,14.09,0,0,0-5.26,1.14,11.46,11.46,0,0,0-3.28,2.76c-2.93,3.1-5.82,6.21-8.76,9.28-1.44,1.49-5.82,4.33-6.13.35-.22-2.5,3-5.56,4.51-7.18a37.37,37.37,0,0,1,8.32-6.75,34.35,34.35,0,0,1,11.47-4.37c2.72-.53,5.48-.75,8.15-1.41.79-.17,1.75-.74,1.53-1.53a1.52,1.52,0,0,0-.74-.74c-1.19-.75-2.37-1.49-3.59-2.24a3.39,3.39,0,0,1,2.84-1.7,10.11,10.11,0,0,1,3.42.52C586.51,576.78,589.53,578,590.89,580.64Z" transform="translate(-48.3 -48.69)"/><path class="cls-7" d="M533.14,571.18l1.35-.31a4.89,4.89,0,0,0,2.11.31c3.28-.35,5.78-3.15,7.61-5.87s3.73-5.73,6.75-7.09a14.49,14.49,0,0,1,5.12-1.05c4.69-.44,9.5-.88,13.93.74A6.83,6.83,0,0,1,574,560.8a3.43,3.43,0,0,1-.88,4.42c-1.36.79-3.28.31-4.42,1.41a6.77,6.77,0,0,0-1,1.66,6.24,6.24,0,0,1-5.34,3,9.1,9.1,0,0,1-5.82-2.37,6.26,6.26,0,0,0-1.36-1c-1.53-.79-3.46,0-4.68,1.23a47.5,47.5,0,0,0-3.07,4.16,11.1,11.1,0,0,1-9,4.07,11.26,11.26,0,0,1-8.58-4.86,2.44,2.44,0,0,1-.44-1.23c.05-.87,1.19-1.4,2.06-1.18A4,4,0,0,1,533.14,571.18Z" transform="translate(-48.3 -48.69)"/><path class="cls-8" d="M572.06,583.05c2.72-.53,5.48-.75,8.15-1.41.79-.17,1.75-.74,1.53-1.53a1.52,1.52,0,0,0-.74-.74c-1.19-.75-2.37-1.49-3.59-2.24a3.39,3.39,0,0,1,2.84-1.7,10.11,10.11,0,0,1,3.42.52c2.84.83,5.86,2.06,7.22,4.69a2.2,2.2,0,0,1,.31,1.27c-.18.83-1.05,1.27-1.84,1.57a71.69,71.69,0,0,1-18.17,4.34,14.09,14.09,0,0,0-5.26,1.14,11.46,11.46,0,0,0-3.28,2.76c-2.93,3.1-5.82,6.21-8.76,9.28-1.44,1.49-5.82,4.33-6.13.35-.22-2.5,3-5.56,4.51-7.18a37.37,37.37,0,0,1,8.32-6.75A34.35,34.35,0,0,1,572.06,583.05Z" transform="translate(-48.3 -48.69)"/><path class="cls-8" d="M532.61,569a3,3,0,0,0,1.88,1.88,4.89,4.89,0,0,0,2.11.31c3.28-.35,5.78-3.15,7.61-5.87s3.73-5.73,6.75-7.09a14.49,14.49,0,0,1,5.12-1.05c4.69-.44,9.5-.88,13.93.74A6.83,6.83,0,0,1,574,560.8a3.43,3.43,0,0,1-.88,4.42c-1.36.79-3.28.31-4.42,1.41a6.77,6.77,0,0,0-1,1.66,6.24,6.24,0,0,1-5.34,3,9.1,9.1,0,0,1-5.82-2.37,6.26,6.26,0,0,0-1.36-1c-1.53-.79-3.46,0-4.68,1.23a47.5,47.5,0,0,0-3.07,4.16,11.1,11.1,0,0,1-9,4.07,11.26,11.26,0,0,1-8.58-4.86,2.44,2.44,0,0,1-.44-1.23c.05-.87,1.19-1.4,2.06-1.18a4,4,0,0,1,1.67,1.14,5.19,5.19,0,0,1,.43.48" transform="translate(-48.3 -48.69)"/><path class="cls-9" d="M393.36,667c9.56-6.24,17.15-16,28.08-19.27,4.52-1.37,9.41-1.55,13.66-3.61,2-1,3.9-3.45,2.42-5-.84-.91-2.29-.83-3.49-.54-3.65.88-7.65,2.94-10.86,1a2.13,2.13,0,0,1-1-1c-.38-1,.61-2,1.52-2.67a34.34,34.34,0,0,1,13.07-5.53,17.36,17.36,0,0,1,9.19.31c2.92,1.05,5.47,3.51,5.95,6.58a35.76,35.76,0,0,1,0,4.63c.09,4.27,2.59,8.23,5.88,11s7.33,4.38,11.38,5.76a111.66,111.66,0,0,0,21.4,5c-.75,1.25-2.29,1.75-3.72,2-15.12,2.87-29.51-9-44.9-8.6-8.93.21-17.25,4.52-24.65,9.53S403,677.4,395,681.3a50.61,50.61,0,0,1-36.83,2.78,36.67,36.67,0,0,1-8.51-3.67c-3.22-2-.21-3.68,2.39-3.74,6.85-.14,13.55-.23,20.31-1.53A58.23,58.23,0,0,0,393.36,667Z" transform="translate(-48.3 -48.69)"/></g></svg>
